<svg width="48" height="48" viewBox="0 0 48 48" xmlns="http://www.w3.org/2000/svg">
  <!-- Folder Base -->
  <path d="M5,12 L43,12 L43,40 C43,41.1 42.1,42 41,42 L7,42 C5.9,42 5,41.1 5,40 L5,12 Z" fill="#FCD775" stroke="#E38D13" stroke-width="1"/>
  <!-- Folder Top -->
  <path d="M5,12 L43,12 L43,17 L5,17 Z" fill="#FDE9A9" stroke="#E38D13" stroke-width="1"/>
  <!-- Folder Tab -->
  <path d="M5,12 L5,7 C5,6.4 5.4,6 6,6 L20,6 C20.6,6 21,6.4 21,7 L21,12 Z" fill="#FDE9A9" stroke="#E38D13" stroke-width="1"/>
  <!-- Document Icons -->
  <rect x="14" y="22" width="20" height="14" fill="#FFFFFF" stroke="#AAAAAA" stroke-width="1"/>
  <rect x="17" y="25" width="14" height="1" fill="#CCCCCC"/>
  <rect x="17" y="28" width="14" height="1" fill="#CCCCCC"/>
  <rect x="17" y="31" width="14" height="1" fill="#CCCCCC"/>
</svg> 